<svg id="eve-logo" xmlns="http://www.w3.org/2000/svg" xmlns:xlink="http://www.w3.org/1999/xlink" width="338.201" height="181.31" viewBox="0 0 338.201 181.31">
  <defs>
    <clipPath id="clip-path">
      <rect id="Rectangle_4" data-name="Rectangle 4" width="338.201" height="181.31" fill="none"/>
    </clipPath>
    <clipPath id="clip-path-2">
      <rect id="Rectangle_3" data-name="Rectangle 3" width="338.201" height="181.308" fill="none"/>
    </clipPath>
    <clipPath id="clip-path-3">
      <rect id="Rectangle_2" data-name="Rectangle 2" width="33.267" height="15.138" fill="none"/>
    </clipPath>
  </defs>
  <g id="Group_6" data-name="Group 6" clip-path="url(#clip-path)">
    <g id="Group_5" data-name="Group 5" transform="translate(0 0.001)">
      <g id="Group_4" data-name="Group 4" clip-path="url(#clip-path-2)">
        <path id="Path_1" data-name="Path 1" d="M38.086,104.085,29.36,79.37,20.622,54.664l-2.182-6.183L17.351,45.4c-.205-.54-.305-.968-.452-1.426a10.555,10.555,0,0,1-.232-1.411,9.965,9.965,0,0,1,2.616-7.817,9.54,9.54,0,0,1,3.429-2.388c.232-.091.419-.182.675-.273l.771-.27,3.092-1.091,6.177-2.182,12.352-4.362,13.067-4.62,11.648-4.109.041-.015a2.192,2.192,0,0,0-1.543-4.1l-5.781,2.182L44.468,20.575,32.2,25.192l-6.127,2.314-3.068,1.156-.763.287c-.261.1-.566.238-.845.361a12.689,12.689,0,0,0-1.657.862A13.747,13.747,0,0,0,16.9,32.583,13.12,13.12,0,0,0,13.676,42.9a12.268,12.268,0,0,0,.343,1.813c.188.584.378,1.214.566,1.69l1.156,3.068L18.055,55.6,27.3,80.124l9.242,24.527.771,2.041c.534-.091,1.074-.17,1.607-.246Z" transform="translate(26.239 21.629)" fill="#f4c200"/>
        <path id="Path_2" data-name="Path 2" d="M48.282,17.068,78.5,6.623,93.6,1.4,95.492.745A14.99,14.99,0,0,1,97.627.194a13.028,13.028,0,0,1,4.411-.012,12.808,12.808,0,0,1,7.488,4.271,11.986,11.986,0,0,1,2.209,3.734c.487,1.3.892,2.525,1.34,3.793l2.631,7.547,5.265,15.091L131.5,64.8,119.946,35l-5.781-14.9-2.889-7.453c-.484-1.229-.959-2.514-1.449-3.7A9.923,9.923,0,0,0,107.887,5.9,10.288,10.288,0,0,0,98.12,2.749a12.087,12.087,0,0,0-1.713.5l-1.865.719L79.623,9.709,49.784,21.184a2.19,2.19,0,1,1-1.572-4.089Z" transform="translate(90.486 -0.002)" fill="#f4c200"/>
        <g id="Group_3" data-name="Group 3" transform="translate(125.335 38.375)" opacity="0.4">
          <g id="Group_2" data-name="Group 2">
            <g id="Group_1" data-name="Group 1" clip-path="url(#clip-path-3)">
              <path id="Path_3" data-name="Path 3" d="M75.492,24.634a31.953,31.953,0,0,0-31.009-10.9,2.19,2.19,0,1,0,.877,4.291,27.594,27.594,0,0,1,26.762,9.407,2.19,2.19,0,0,0,3.37-2.8Z" transform="translate(-42.73 -13.084)" fill="#fff"/>
            </g>
          </g>
        </g>
        <path id="Path_4" data-name="Path 4" d="M40.462,16.6,17.551,24.962l-.308-.845a7.99,7.99,0,0,1,4.763-10.246l7.9-2.883a7.99,7.99,0,0,1,10.246,4.763Z" transform="translate(32.392 20.299)" fill="#f4c200"/>
        <path id="Path_5" data-name="Path 5" d="M127.784,84.025c-7.327,14.575-22.207,25.31-38.483,27.082-18.813,2.047-38.4-7.981-47.726-24.445s-7.879-38.413,3.543-53.5S77.277,10.713,95.654,15.224,129,35.859,132.137,54.52Q99.979,66.179,67.827,77.836,69.415,82.209,71,86.588l71.121-25.827A59.087,59.087,0,0,0,119.7,16.8C85.813-9.59,34.048,10.414,26.768,52.781c-3.884,22.618,7.1,47.077,26.583,59.2a19.61,19.61,0,0,0,5.987,2.707,23.539,23.539,0,0,0,5.943.285L106.7,113.45a21.925,21.925,0,0,0,6.474-.889,18.724,18.724,0,0,0,4.887-2.81,61.742,61.742,0,0,0,20.019-25.727Z" transform="translate(50.248 9.501)" fill="#fff"/>
        <path id="Path_6" data-name="Path 6" d="M104.511,29.574,87.138,63.056,74.687,27.351l-9.612-.722,2.024,5.52,3.053,8.31L81.06,70.192l.631,1.707,9.187.68.977-1.8,22.016-40.513Z" transform="translate(125.8 51.477)" fill="#fff"/>
        <path id="Path_7" data-name="Path 7" d="M109.294,28.146c-17.045-1.273-26.208,8.882-27.152,21.5C81.5,58.232,84.8,66.263,92.355,70.915A25.218,25.218,0,0,0,97.4,73.276q6.608.713,13.2,1.575a25.122,25.122,0,0,0,4.473-.877,22.713,22.713,0,0,0,14.393-12.14l-8.858-.666c-3.306,5.972-9.941,7.072-14.707,6.72-7.433-.557-15.091-6-15.085-15.076l40.275,3.009.082-1.091c1.352-18.127-10.351-25.724-21.876-26.583M91.551,46.314c1.836-7.758,9.113-11.753,16.8-11.181,7.849.592,13.707,5.482,14.364,13.51Z" transform="translate(158.643 54.201)" fill="#fff"/>
        <path id="Path_8" data-name="Path 8" d="M317.882,59.546c-1.713-.569-3.446-1.044-5.177-1.531l-5.2-1.461c-3.476-.883-6.963-1.775-10.457-2.6-7.744-1.757-15.528-3.27-23.336-4.593-6.315-1.082-12.648-2.018-19-2.875-1.241-.173-2.47-.334-3.708-.487-11.084-1.4-22.207-2.4-33.344-3.136-1.895-.135-3.79-.252-5.685-.37-1.707-.1-3.405-.2-5.11-.279Q188,41.228,169.1,41.152c-1.024.009-2.05.009-3.074.026q-19.909.163-39.8,1.314c-6.5.4-13.009.856-19.506,1.434-7.758.675-15.5,1.514-23.222,2.567Q74.31,47.721,65.16,49.25c-.531.079-1.074.17-1.607.27q-11.246,1.918-22.392,4.432c-3.493.827-6.981,1.719-10.466,2.6L25.5,58.015c-1.731.487-3.461.962-5.174,1.531A196.593,196.593,0,0,0,0,66.987,256.817,256.817,0,0,1,41.375,55.149q11.307-2.349,22.7-4.1c.525-.082,1.059-.161,1.584-.243q8.993-1.364,18.039-2.414,13.226-1.553,26.5-2.575c17.309-1.326,34.655-2,52.005-2.135,2.3-.018,4.6-.029,6.9-.029A729.839,729.839,0,0,1,254.508,48.4c.51.062,1.027.117,1.534.188q6.608.788,13.2,1.731c9.237,1.335,18.438,2.927,27.592,4.837A254.763,254.763,0,0,1,338.2,67a193.754,193.754,0,0,0-20.318-7.45" transform="translate(0 79.552)" fill="#081f3a"/>
        <path id="Path_9" data-name="Path 9" d="M14.283,49.063H26.772c3.329,0,8.547,1.191,8.547,8.219,0,5.136-3.37,8.054-9.2,8.054H16.09V78.4H14.283Zm1.807,14.71H26.4c5.3,0,7.11-3.493,7.11-6.532,0-2.179-.986-6.617-6.864-6.617H16.09Z" transform="translate(27.611 94.846)" fill="#f4c200"/>
        <path id="Path_10" data-name="Path 10" d="M25.426,49.063V61.8h.082a7.823,7.823,0,0,1,7.562-5.013c7.436,0,7.518,5.957,7.518,8.547V78.4h-1.56V65.049c0-2.179-.246-6.9-6-6.9-4.725,0-7.6,3.658-7.6,8.835V78.4h-1.56V49.063Z" transform="translate(46.137 94.846)" fill="#f4c200"/>
        <path id="Path_11" data-name="Path 11" d="M41.9,51.7c6.2,0,9.7,5.051,9.7,11.052S48.1,73.8,41.9,73.8s-9.7-5.054-9.7-11.052S35.7,51.7,41.9,51.7m0,20.749c5.3,0,8.137-4.643,8.137-9.7s-2.836-9.7-8.137-9.7-8.137,4.643-8.137,9.7,2.836,9.7,8.137,9.7" transform="translate(62.252 99.938)" fill="#f4c200"/>
        <path id="Path_12" data-name="Path 12" d="M50.746,57.554h-4.6V72.305c0,3.411,1.6,3.74,4.561,3.658v1.355c-3.206.205-6.289-.246-6.124-5.013V57.554h-3.9V56.2h3.9V49.623h1.563V56.2h4.6Z" transform="translate(78.639 95.928)" fill="#f4c200"/>
        <path id="Path_13" data-name="Path 13" d="M55.854,51.7c6.2,0,9.7,5.051,9.7,11.052S62.058,73.8,55.854,73.8s-9.7-5.054-9.7-11.052S49.65,51.7,55.854,51.7m0,20.749c5.3,0,8.137-4.643,8.137-9.7s-2.836-9.7-8.137-9.7-8.137,4.643-8.137,9.7,2.836,9.7,8.137,9.7" transform="translate(89.229 99.938)" fill="#f4c200"/>
        <path id="Path_14" data-name="Path 14" d="M73.5,52.19V72.2c0,1.646,0,9.451-9.122,9.163-4.52,0-8.013-1.684-8.26-6.573h1.56c.329,3.74,3.288,5.218,6.74,5.218,7.395,0,7.518-6.039,7.518-7.439V67.721h-.082a7.928,7.928,0,0,1-7.641,4.807c-6.207,0-9.122-4.561-9.122-10.436,0-5.588,3.162-10.4,9.122-10.4a7.9,7.9,0,0,1,7.641,4.89h.082v-4.4Zm-16.848,9.9c0,4.972,2.59,9.081,7.562,9.081,5.136,0,7.682-4.315,7.682-9.081,0-4.725-2.5-9.04-7.682-9.04-5.095,0-7.562,4.561-7.562,9.04" transform="translate(106.508 99.938)" fill="#f4c200"/>
        <path id="Path_15" data-name="Path 15" d="M65.9,56.636h.123c.821-2.754,4.274-4.972,8.1-4.807v1.56a7.145,7.145,0,0,0-5.837,2.056c-1.56,1.6-2.217,2.919-2.382,6.08V73.074h-1.56V51.952H65.9Z" transform="translate(124.384 100.176)" fill="#f4c200"/>
        <path id="Path_16" data-name="Path 16" d="M85.86,69.408c0,1.232,0,2.546,1.4,2.546a7.324,7.324,0,0,0,1.15-.123v1.317a7.211,7.211,0,0,1-1.276.164c-2.464,0-2.833-1.358-2.833-3.083V69.12h-.082c-.986,2.5-3.822,4.684-7.849,4.684-3.986,0-7.066-1.519-7.066-5.957,0-4.934,4.274-5.96,7.767-6.248,6.984-.493,7.271-.944,7.271-4.4,0-.944-1.068-4.15-5.875-4.15-3.781,0-6.289,1.974-6.494,5.629h-1.56c.205-4.64,3.083-6.984,8.055-6.984,3.7,0,7.395,1.15,7.395,5.506Zm-1.56-8.1c-1.232,1.4-4.6,1.232-7.644,1.643-3.7.411-5.793,1.728-5.793,4.893,0,2.546,1.848,4.6,5.547,4.6,7.11,0,7.89-6.083,7.89-7.192Z" transform="translate(133.973 99.938)" fill="#f4c200"/>
        <path id="Path_17" data-name="Path 17" d="M79.733,57.038h.082A7.886,7.886,0,0,1,87.5,51.7c6.494,0,9.492,5.136,9.492,11.093C96.989,69.2,93.95,73.8,87.5,73.8c-3.493,0-6.45-1.481-7.682-4.893h-.082V80.87H78.17V52.19h1.563Zm15.7,5.752c0-4.807-2.259-9.738-7.931-9.738-5.629,0-7.723,4.725-7.723,9.738s1.766,9.656,7.723,9.656c5.506,0,7.931-4.438,7.931-9.656" transform="translate(151.116 99.938)" fill="#f4c200"/>
        <path id="Path_18" data-name="Path 18" d="M88.8,49.063V61.8h.082a7.823,7.823,0,0,1,7.562-5.013c7.436,0,7.518,5.957,7.518,8.547V78.4H102.4V65.049c0-2.179-.246-6.9-6-6.9-4.725,0-7.6,3.658-7.6,8.835V78.4h-1.56V49.063Z" transform="translate(168.64 94.846)" fill="#f4c200"/>
        <path id="Path_19" data-name="Path 19" d="M95.039,51.865H96.89l7.846,19.271,7.233-19.271h1.766l-9.04,23.38c-.862,2.056-1.56,3.658-2.464,4.356-1.112.862-2.549.944-4.931.944V79.19c2.217,0,3.326-.287,4.394-1.355.619-.616,1.194-2.179,2.179-4.972Z" transform="translate(183.727 100.262)" fill="#f4c200"/>
      </g>
    </g>
  </g>
</svg>
