<svg xmlns="http://www.w3.org/2000/svg" width="21.5" height="21.5" viewBox="0 0 21.5 21.5">
  <g id="image-" transform="translate(-1.25 -1.25)">
    <path id="Path_2582" data-name="Path 2582" d="M9,10.75A2.75,2.75,0,1,1,11.75,8,2.748,2.748,0,0,1,9,10.75Zm0-4A1.25,1.25,0,1,0,10.25,8,1.25,1.25,0,0,0,9,6.75Z" fill="#707070"/>
    <path id="Path_2583" data-name="Path 2583" d="M15,22.75H9c-5.43,0-7.75-2.32-7.75-7.75V9C1.25,3.57,3.57,1.25,9,1.25h4a.75.75,0,0,1,0,1.5H9C4.39,2.75,2.75,4.39,2.75,9v6c0,4.61,1.64,6.25,6.25,6.25h6c4.61,0,6.25-1.64,6.25-6.25V10a.75.75,0,0,1,1.5,0v5C22.75,20.43,20.43,22.75,15,22.75Z" fill="#707070"/>
    <path id="Path_2584" data-name="Path 2584" d="M18,8.75A.755.755,0,0,1,17.25,8V2a.741.741,0,0,1,.46-.69.776.776,0,0,1,.82.16l2,2a.75.75,0,0,1-1.06,1.06l-.72-.72V8A.755.755,0,0,1,18,8.75Z" fill="#707070"/>
    <path id="Path_2585" data-name="Path 2585" d="M16,4.75a.742.742,0,0,1-.53-.22.754.754,0,0,1,0-1.06l2-2a.75.75,0,0,1,1.06,1.06l-2,2A.742.742,0,0,1,16,4.75Z" fill="#707070"/>
    <path id="Path_2586" data-name="Path 2586" d="M2.67,19.7a.75.75,0,0,1-.42-1.37l4.93-3.31a3,3,0,0,1,3.55.19l.33.29a1.473,1.473,0,0,0,1.84,0l4.16-3.57a2.986,2.986,0,0,1,3.8,0l1.63,1.4a.752.752,0,0,1-.98,1.14l-1.63-1.4a1.473,1.473,0,0,0-1.84,0l-4.16,3.57a2.986,2.986,0,0,1-3.8,0l-.33-.29a1.487,1.487,0,0,0-1.73-.08L3.1,19.58a.876.876,0,0,1-.43.12Z" fill="#707070"/>
  </g>
</svg>
