<svg xmlns="http://www.w3.org/2000/svg" width="24" height="24" viewBox="0 0 24 24">
  <path id="menu-q" d="M16.992,13.39V10.611A4.933,4.933,0,0,0,12,5.751a4.947,4.947,0,0,0-5.008,4.86V13.39A4.941,4.941,0,0,0,12,18.25a5.07,5.07,0,0,0,2.484-.645l.956.956,2.121-2.121-1.023-1.023a4.725,4.725,0,0,0,.455-2.026ZM12,15.25a1.941,1.941,0,0,1-2.008-1.86V10.611A1.94,1.94,0,0,1,12,8.751a1.909,1.909,0,0,1,1.992,1.86v2.261l-.432-.432-2.121,2.121.686.686c-.041,0-.083,0-.125,0ZM12,0A12,12,0,1,0,24,12,12.013,12.013,0,0,0,12,0Zm0,21a9,9,0,1,1,9-9A9.01,9.01,0,0,1,12,21Z" fill="#f4c235"/>
</svg>
