<svg xmlns="http://www.w3.org/2000/svg" width="24" height="20.01" viewBox="0 0 24 20.01">
  <path id="nav-albom" d="M9,7.5A1.5,1.5,0,1,1,10.5,9,1.5,1.5,0,0,1,9,7.5ZM24,7v6a5,5,0,0,1-5,5H10a5,5,0,0,1-5-5V7a5,5,0,0,1,5-5h9A5,5,0,0,1,24,7ZM7,13a3.01,3.01,0,0,0,.77,2.01l5.24-5.24a2.658,2.658,0,0,1,3.67,0l1.04,1.04a.61.61,0,0,0,.85,0L22,7.38V7a3.009,3.009,0,0,0-3-3H10A3.009,3.009,0,0,0,7,7Zm15,0V10.21l-2.02,2.02a2.658,2.658,0,0,1-3.67,0l-1.04-1.04a.61.61,0,0,0-.85,0L9.63,15.98A2.234,2.234,0,0,0,10,16h9A3.009,3.009,0,0,0,22,13Zm-5,7H5a3.009,3.009,0,0,1-3-3V11a2.963,2.963,0,0,1,.77-2A1,1,0,0,0,1.28,7.67,5.01,5.01,0,0,0,0,11.01v6a5,5,0,0,0,5,5H17a1,1,0,0,0,0-2Z" transform="translate(0 -2)" fill="#274982"/>
</svg>
