<svg xmlns="http://www.w3.org/2000/svg" width="40.597" height="39.245" viewBox="0 0 40.597 39.245">
  <g id="Page-1" transform="translate(-0.002 -0.002)">
    <g id="_055---Image-Folder" data-name="055---Image-Folder" transform="translate(0.002 0.002)">
      <path id="Shape" d="M40.142,14.955a2.023,2.023,0,0,0-1.572-.744h-.765l1.318-3.616a2.03,2.03,0,0,0-1.218-2.6L16.292.124a2.03,2.03,0,0,0-2.6,1.218l-2.221,6.1H5.414A2.707,2.707,0,0,0,2.707,10.15v4.06H2.031A2.03,2.03,0,0,0,.041,16.637L4.019,36.523a3.388,3.388,0,0,0,3.316,2.724H33.265a3.388,3.388,0,0,0,3.316-2.722l3.978-19.887a2.015,2.015,0,0,0-.417-1.683ZM14.961,1.8a.677.677,0,0,1,.865-.406L37.445,9.263a.677.677,0,0,1,.406.865L36.364,14.21H34.929l1.192-3.273a.677.677,0,0,0-.406-.867L16.641,3.127a.677.677,0,0,0-.867.406L11.883,14.21H10.446ZM32.586,14.21l-1.232-2.635a.677.677,0,0,0-.931-.311L24.888,14.21H22.552L20.894,10.65a.677.677,0,0,0-.932-.312l-6.485,3.451L16.814,4.63l17.8,6.48-1.128,3.1Zm-1.494,0H27.769l2.661-1.416Zm-10.033,0h-5.5l4.4-2.343Zm-17-4.06A1.353,1.353,0,0,1,5.414,8.8h5.562L9.007,14.21H4.061Zm35.172,6.22L35.254,36.26a2.03,2.03,0,0,1-1.989,1.633H7.336a2.034,2.034,0,0,1-1.989-1.635L1.368,16.37a.677.677,0,0,1,.662-.807H38.57a.677.677,0,0,1,.662.807Z" transform="translate(-0.002 -0.002)" fill="#707070"/>
      <path id="Shape-2" data-name="Shape" d="M7.03,25H5.677a.677.677,0,1,0,0,1.353H7.03A.677.677,0,1,0,7.03,25Z" transform="translate(-1.618 -8.085)" fill="#707070"/>
      <path id="Shape-3" data-name="Shape" d="M22.5,25H11.677a.677.677,0,1,0,0,1.353H22.5A.677.677,0,1,0,22.5,25Z" transform="translate(-3.558 -8.085)" fill="#707070"/>
      <path id="Shape-4" data-name="Shape" d="M33.411,14.657A2.016,2.016,0,1,0,35.229,13.3a2.03,2.03,0,0,0-1.818,1.358Zm1.676,1.33a.677.677,0,1,1,.518-.023.677.677,0,0,1-.518.023Z" transform="translate(-10.765 -4.301)" fill="#707070"/>
    </g>
  </g>
</svg>
