<svg xmlns="http://www.w3.org/2000/svg" width="40.798" height="33.998" viewBox="0 0 40.798 33.998">
  <g id="photo-album2" transform="translate(-16 -56)">
    <path id="Path_2566" data-name="Path 2566" d="M56.118,64.16h-2.04v-3.4a.68.68,0,0,0-.68-.68h-.68v-3.4a.68.68,0,0,0-.68-.68h-34a.68.68,0,0,0-.68.68v3.4h-.68a.68.68,0,1,0,0,1.36h.68v2.72h-.68a.68.68,0,0,0,0,1.36h.68v2.72h-.68a.68.68,0,0,0,0,1.36h.68v2.72h-.68a.68.68,0,0,0,0,1.36h.68V76.4h-.68a.68.68,0,0,0,0,1.36h.68v2.72h-.68a.68.68,0,1,0,0,1.36h.68v2.72h-.68a.68.68,0,1,0,0,1.36h.68v3.4a.68.68,0,0,0,.68.68h34a.68.68,0,0,0,.68-.68v-3.4h3.4a.68.68,0,0,0,.68-.68V64.84A.68.68,0,0,0,56.118,64.16ZM50,61.44h2.72V80.479H50Zm1.36-1.36H50V57.36h1.36ZM18.72,85.918h.68a.68.68,0,1,0,0-1.36h-.68v-2.72h.68a.68.68,0,1,0,0-1.36h-.68v-2.72h.68a.68.68,0,0,0,0-1.36h-.68v-2.72h.68a.68.68,0,0,0,0-1.36h-.68V69.6h.68a.68.68,0,0,0,0-1.36h-.68V65.52h.68a.68.68,0,0,0,0-1.36h-.68V61.44h.68a.68.68,0,1,0,0-1.36h-.68V57.36H48.638V88.638H18.72Zm32.638,2.72H50v-2.72h1.36Zm4.08-4.08H50v-2.72h3.4a.68.68,0,0,0,.68-.68V65.52h1.36Z" fill="#707070"/>
    <path id="Path_2567" data-name="Path 2567" d="M130.359,151.852H112.68a.68.68,0,0,0-.68.68v16.332a.68.68,0,0,0,.68.68h17.679a.68.68,0,0,0,.68-.68V152.532A.68.68,0,0,0,130.359,151.852Zm-.68,1.36v13.17l-3.973-6.7a.68.68,0,0,0-1.129-.061l-4.155,5.547L117.7,162.9a.68.68,0,0,0-.955.085L113.36,167v-13.79Zm-.513,14.972H114.142l3.206-3.805,2.755,2.288a.68.68,0,0,0,.979-.115l3.973-5.3Z" transform="translate(-87.84 -87.705)" fill="#707070"/>
    <path id="Path_2568" data-name="Path 2568" d="M170.04,204.08a2.04,2.04,0,1,0-2.04-2.04A2.04,2.04,0,0,0,170.04,204.08Zm0-2.72a.68.68,0,1,1-.68.68A.68.68,0,0,1,170.04,201.36Z" transform="translate(-139.081 -131.761)" fill="#707070"/>
  </g>
</svg>
