<svg xmlns="http://www.w3.org/2000/svg" width="40.435" height="34.512" viewBox="0 0 40.435 34.512">
  <g id="photo-album" transform="translate(0 -37.5)">
    <path id="Path_2559" data-name="Path 2559" d="M429.5,459.5h1.185v1.185H429.5Z" transform="translate(-395.581 -388.673)" fill="#fff"/>
    <path id="Path_2560" data-name="Path 2560" d="M40.435,67.273V37.5H2.962v3.554H1.777a1.777,1.777,0,1,0,0,3.554H2.962v6H1.777a1.777,1.777,0,0,0,0,3.554H2.962v6H1.777a1.777,1.777,0,0,0,0,3.554H2.962v8.292H32.735V70.827H4.146V67.273H38.065v1.185H5.489v1.185H38.065v1.185H36.288v1.185h4.146V70.827H39.25V67.273ZM1.185,42.831a.593.593,0,0,1,.592-.592H5.331a.592.592,0,0,1,0,1.185H1.777A.593.593,0,0,1,1.185,42.831Zm0,9.556a.593.593,0,0,1,.592-.592H5.331a.592.592,0,0,1,0,1.185H1.777A.593.593,0,0,1,1.185,52.387Zm0,9.556a.593.593,0,0,1,.592-.592H5.331a.592.592,0,1,1,0,1.185H1.777A.593.593,0,0,1,1.185,61.943Zm2.962,1.777H5.331a1.777,1.777,0,0,0,0-3.554H4.146v-6H5.331a1.777,1.777,0,0,0,0-3.554H4.146v-6H5.331a1.777,1.777,0,1,0,0-3.554H4.146V38.685h35.1v27.4H4.146Z" fill="#fff"/>
    <path id="Path_2561" data-name="Path 2561" d="M215.667,173.27l.227.094.227-.094c2.028-.843,5.475-2.727,5.766-5.882a3.373,3.373,0,0,0-5.993-2.647,3.373,3.373,0,0,0-5.993,2.647C210.193,170.543,213.639,172.427,215.667,173.27Zm-3.233-8.512a1.856,1.856,0,0,1,.7-.136,3.1,3.1,0,0,1,2.3,1.379l.463.582.463-.582c.939-1.179,2.031-1.632,3-1.243a2.423,2.423,0,0,1,1.353,2.522,4.612,4.612,0,0,1-1.878,3.065,12.579,12.579,0,0,1-2.935,1.735,12.576,12.576,0,0,1-2.935-1.735,4.612,4.612,0,0,1-1.878-3.065A2.423,2.423,0,0,1,212.435,164.758Z" transform="translate(-193.308 -115.991)" fill="#fff"/>
    <path id="Path_2562" data-name="Path 2562" d="M467,67.5h1.185v1.185H467Z" transform="translate(-430.119 -27.63)" fill="#fff"/>
    <path id="Path_2563" data-name="Path 2563" d="M467,97.5h1.185v1.185H467Z" transform="translate(-430.119 -55.261)" fill="#fff"/>
    <path id="Path_2564" data-name="Path 2564" d="M314.65,198.734h1.185v1.185H314.65Z" transform="translate(-289.801 -148.501)" fill="#fff"/>
    <path id="Path_2565" data-name="Path 2565" d="M162.964,114.766h1.185V112.99h17.064v15.668H164.149V115.951h-1.185v13.891H182.4V111.805H162.964Z" transform="translate(-150.094 -68.437)" fill="#fff"/>
  </g>
</svg>
