<svg id="user-add" xmlns="http://www.w3.org/2000/svg" width="24" height="24" viewBox="0 0 24 24">
  <path id="Path_2533" data-name="Path 2533" d="M23,11H21V9a1,1,0,0,0-2,0v2H17a1,1,0,0,0,0,2h2v2a1,1,0,0,0,2,0V13h2a1,1,0,0,0,0-2Z" fill="#fff"/>
  <path id="Path_2534" data-name="Path 2534" d="M9,12A6,6,0,1,0,3,6a6,6,0,0,0,6,6ZM9,2A4,4,0,1,1,5,6,4,4,0,0,1,9,2Z" fill="#fff"/>
  <path id="Path_2535" data-name="Path 2535" d="M9,14a9.01,9.01,0,0,0-9,9,1,1,0,1,0,2,0,7,7,0,1,1,14,0,1,1,0,0,0,2,0A9.01,9.01,0,0,0,9,14Z" fill="#fff"/>
</svg>
