<svg xmlns="http://www.w3.org/2000/svg" width="40.163" height="38.704" viewBox="0 0 40.163 38.704">
  <g id="vec-q2" transform="translate(-1421.381 -566.755) rotate(180)">
    <path id="Path_2542" data-name="Path 2542" d="M-1403.2-538.68l-16.419-5.084a1.747,1.747,0,0,0-1.033,0l-16.419,5.084a1.747,1.747,0,0,1-2.263-1.668V-570.6a4.274,4.274,0,0,1,4.274-4.274h29.849a4.274,4.274,0,0,1,4.274,4.274v30.252A1.747,1.747,0,0,1-1403.2-538.68Z" transform="translate(-20.445 -28.154)" fill="#bababa"/>
    <path id="Path_2543" data-name="Path 2543" d="M-1425.523-569.3l-16.28-5.041a1.834,1.834,0,0,0-1.085,0l-16.279,5.041a1.834,1.834,0,0,1-2.377-1.752v-30.132a4.274,4.274,0,0,1,4.274-4.274h29.85a4.274,4.274,0,0,1,4.274,4.274v30.132A1.834,1.834,0,0,1-1425.523-569.3Z" fill="#274982"/>
    <g id="Group_107" data-name="Group 107" transform="translate(-1450.229 -595.296)">
      <path id="Path_2544" data-name="Path 2544" d="M-1319.195-464.631v-5.447l3.488-7.524h2.939l-2.43,6.9h2.077v6.074Z" transform="translate(1319.195 477.602)" fill="#fffffe"/>
      <path id="Path_2545" data-name="Path 2545" d="M-1196.436-464.631v-5.447l3.488-7.524h2.939l-2.43,6.9h2.077v6.074Z" transform="translate(1206.194 477.602)" fill="#fffffe"/>
    </g>
  </g>
</svg>
