<svg xmlns="http://www.w3.org/2000/svg" width="40" height="29.915" viewBox="0 0 40 29.915">
  <g id="XMLID_48w" transform="translate(0 -59)">
    <g id="Group_126" data-name="Group 126" transform="translate(0.085 59)">
      <path id="Path_2569" data-name="Path 2569" d="M23.79,146.276H18.037a.427.427,0,0,1-.427-.427v-2.091L1.428,143.8A.43.43,0,0,1,1,143.369V122.149a.427.427,0,0,1,.855,0V142.94l16.183-.039a.43.43,0,0,1,.428.427v2.092h4.9v-2.226a.43.43,0,0,1,.427-.427l16.183,0V122.149a.427.427,0,1,1,.855,0V143.2a.43.43,0,0,1-.427.427l-16.184,0v2.226a.427.427,0,0,1-.427.427Z" transform="translate(-0.999 -116.361)" fill="#fff"/>
      <path id="Path_2570" data-name="Path 2570" d="M72.483,59.007h-14.5a2.132,2.132,0,0,0-1.707.852A2.135,2.135,0,0,0,54.568,59h-14.5a.427.427,0,0,0-.427.427V82.618a.428.428,0,0,0,.429.427l12.739-.009a3.953,3.953,0,0,1,3.106,1.526.429.429,0,0,0,.7.031,3.945,3.945,0,0,1,3.109-1.532h0l12.753.006a.43.43,0,0,0,.428-.427V59.435A.427.427,0,0,0,72.483,59.007ZM55.851,83.273a4.816,4.816,0,0,0-3.036-1.091L40.5,82.176V59.855H54.569a1.284,1.284,0,0,1,1.282,1.282V83.273Zm16.2-1.06-12.326-.006h0a4.808,4.808,0,0,0-3.021,1.079V61.144a1.288,1.288,0,0,1,1.282-1.282H72.055Z" transform="translate(-36.343 -59)" fill="#fff"/>
    </g>
    <g id="Group_128" data-name="Group 128" transform="translate(5.944 62.066)">
      <g id="Group_127" data-name="Group 127" transform="translate(0 1.359)">
        <path id="Path_2571" data-name="Path 2571" d="M121.494,152.245a1.964,1.964,0,1,1,1.966-1.964A1.967,1.967,0,0,1,121.494,152.245Zm0-3.073a1.109,1.109,0,1,0,1.111,1.109A1.111,1.111,0,0,0,121.494,149.172Z" transform="translate(-115.256 -145.107)" fill="#fff"/>
        <path id="Path_2572" data-name="Path 2572" d="M81.063,110.764H69.969a.427.427,0,0,0-.427.427v14.343a.427.427,0,0,0,.427.427H81.063a.427.427,0,0,0,.427-.427V111.191A.427.427,0,0,0,81.063,110.764Zm-.427.855v12.442l-2.6-4.111a.43.43,0,0,0-.723,0l-1.952,3.113-1.78-3.434a.43.43,0,0,0-.751-.014L70.4,123.91V111.619Zm-4.221,13.488-.6-1.161,1.859-2.965,2.614,4.126Zm-.963,0H70.7l2.479-4.383Z" transform="translate(-69.542 -110.764)" fill="#fff"/>
      </g>
      <path id="Path_2573" data-name="Path 2573" d="M270.658,102.552H259.564a.427.427,0,0,1-.427-.427V95.3a.427.427,0,0,1,.427-.427h11.094a.427.427,0,0,1,.427.427v6.83A.427.427,0,0,1,270.658,102.552Zm-10.667-.855h10.239V95.723H259.992Z" transform="translate(-242.932 -94.868)" fill="#fff"/>
      <path id="Path_2574" data-name="Path 2574" d="M270.658,222.415H259.564a.427.427,0,0,1-.427-.427v-6.83a.427.427,0,0,1,.427-.427h11.094a.427.427,0,0,1,.427.427v6.83A.427.427,0,0,1,270.658,222.415Zm-10.667-.855h10.239v-5.975H259.992Z" transform="translate(-242.932 -204.485)" fill="#fff"/>
    </g>
    <ellipse id="Ellipse_14" data-name="Ellipse 14" cx="0.556" cy="0.556" rx="0.556" ry="0.556" transform="translate(38.889 61.937)" fill="#fff"/>
    <ellipse id="Ellipse_15" data-name="Ellipse 15" cx="0.556" cy="0.556" rx="0.556" ry="0.556" transform="translate(0 61.937)" fill="#fff"/>
  </g>
</svg>
